<?xml version="1.0" encoding="UTF-8" standalone="no"?>
<!-- Created with Inkscape (http://www.inkscape.org/) -->

<svg
   xmlns:dc="http://purl.org/dc/elements/1.1/"
   xmlns:cc="http://creativecommons.org/ns#"
   xmlns:rdf="http://www.w3.org/1999/02/22-rdf-syntax-ns#"
   xmlns:svg="http://www.w3.org/2000/svg"
   xmlns="http://www.w3.org/2000/svg"
   xmlns:sodipodi="http://sodipodi.sourceforge.net/DTD/sodipodi-0.dtd"
   xmlns:inkscape="http://www.inkscape.org/namespaces/inkscape"
   width="512"
   height="39.784412"
   viewBox="0 0 512.00001 39.784413"
   id="svg2"
   version="1.1"
   inkscape:version="0.91 r13725"
   sodipodi:docname="splash.svg">
  <defs
     id="defs4" />
  <sodipodi:namedview
     id="base"
     pagecolor="#ffffff"
     bordercolor="#666666"
     borderopacity="1.0"
     inkscape:pageopacity="0.0"
     inkscape:pageshadow="2"
     inkscape:zoom="0.79589844"
     inkscape:cx="458.63953"
     inkscape:cy="-53.24334"
     inkscape:document-units="px"
     inkscape:current-layer="layer1"
     showgrid="false"
     units="px"
     borderlayer="true"
     inkscape:showpageshadow="false"
     inkscape:window-width="1366"
     inkscape:window-height="718"
     inkscape:window-x="0"
     inkscape:window-y="30"
     inkscape:window-maximized="1"
     inkscape:snap-bbox="true"
     inkscape:bbox-paths="true"
     inkscape:bbox-nodes="true"
     inkscape:snap-bbox-edge-midpoints="true"
     inkscape:snap-bbox-midpoints="true"
     fit-margin-top="0"
     fit-margin-left="0"
     fit-margin-right="0"
     fit-margin-bottom="0" />
  <metadata
     id="metadata7">
    <rdf:RDF>
      <cc:Work
         rdf:about="">
        <dc:format>image/svg+xml</dc:format>
        <dc:type
           rdf:resource="http://purl.org/dc/dcmitype/StillImage" />
        <dc:title></dc:title>
      </cc:Work>
    </rdf:RDF>
  </metadata>
  <g
     inkscape:label="Layer 1"
     inkscape:groupmode="layer"
     id="layer1"
     transform="translate(-3.5031251,-1012.5777)">
    <g
       style="font-style:normal;font-weight:normal;font-size:40.55495834px;line-height:125%;font-family:sans-serif;letter-spacing:0px;word-spacing:0px;fill:#ffffff;fill-opacity:1;stroke:none;stroke-width:1px;stroke-linecap:butt;stroke-linejoin:miter;stroke-opacity:1"
       id="text4138">
      <path
         d="m 5.1456009,1014.2405 c -0.6488793,0.1216 -1.2166487,0.5272 -1.4599785,1.0949 -0.2433297,0.5273 -0.2433297,1.1356 0,1.6222 0.2027748,0.4867 0.6894343,0.8922 1.2572038,1.0545 0.1622198,0.081 0.2027747,0.081 1.2572037,0.081 l 1.1355388,0 0,11.112 0,11.1121 -1.1355388,0 c -1.054429,0.041 -1.0949839,0.041 -1.2572037,0.081 -0.8922091,0.2433 -1.4194236,0.9733 -1.4194236,1.8655 0,0.8922 0.5272145,1.6222 1.4194236,1.8656 l 0.1622198,0.081 3.893276,0 c 3.771611,0 3.933831,0 4.298826,-0.041 1.094983,-0.1622 2.108857,-0.5678 2.960512,-1.2572 0.446104,-0.4055 0.973319,-0.9328 1.257203,-1.46 0.08111,-0.1216 1.094984,-2.1088 2.271078,-4.4205 2.352187,-4.6638 2.392742,-4.7449 2.636072,-5.7182 0.16222,-0.73 0.24333,-1.2572 0.24333,-2.1089 0,-0.8516 -0.08111,-1.3788 -0.24333,-2.1088 -0.24333,-0.9733 -0.283885,-1.0545 -2.636072,-5.7183 -1.176094,-2.3116 -2.189968,-4.2582 -2.230523,-4.3799 -0.932764,-1.5411 -2.554962,-2.555 -4.33938,-2.7577 -0.283885,-0.041 -0.851654,-0.041 -4.1366061,-0.041 -2.1088578,0 -3.893276,0.041 -3.933831,0.041 z m 7.9082171,3.8932 c 0.405549,0.1217 0.811099,0.4056 1.054429,0.6895 0.121665,0.1622 0.364994,0.6488 3.366061,6.6104 0.811099,1.5817 0.932764,1.9061 1.054429,2.19 0.202775,0.6894 0.283885,1.2978 0.24333,1.9466 -0.04056,0.4867 -0.121665,0.7706 -0.24333,1.2167 -0.121665,0.2839 -0.24333,0.6083 -1.054429,2.1899 -3.001067,5.9616 -3.244396,6.4483 -3.366061,6.6105 -0.16222,0.2028 -0.446105,0.4056 -0.689435,0.5272 -0.364994,0.2028 -0.405549,0.2028 -1.338313,0.2028 l -0.892209,0 0,-11.1121 0,-11.112 0.892209,0 c 0.689434,0 0.851654,0.04 0.973319,0.04 z"
         style="font-style:normal;font-variant:normal;font-weight:normal;font-stretch:normal;font-family:OCRA;-inkscape-font-specification:OCRA;fill:#ffffff"
         id="path4919" />
      <path
         d="m 39.894864,1022.392 c -0.324439,0.041 -0.729989,0.2028 -0.973319,0.4056 -0.283884,0.2433 -0.527214,0.6083 -0.648879,1.0138 -0.08111,0.2839 -0.08111,0.73 0,1.0139 0.16222,0.5272 0.527215,0.9733 1.013874,1.2166 0.446105,0.2028 0.16222,0.2028 3.528281,0.2028 l 3.041622,0 -0.04055,10.3821 0,10.3415 -0.04055,0.1622 c -0.121664,0.4056 -0.364994,0.73 -0.608324,0.9328 -0.24333,0.1622 -0.364995,0.2433 -0.608324,0.3244 l -0.24333,0.081 -2.230523,0 -2.230522,0 -0.202775,-0.041 c -0.689435,-0.2433 -1.216649,-0.7706 -1.378869,-1.46 -0.16222,-0.73 -0.364994,-1.095 -0.811099,-1.3789 -0.364995,-0.2433 -0.729989,-0.365 -1.135539,-0.365 -0.32444,0 -0.567769,0.081 -0.892209,0.2434 -0.16222,0.081 -0.24333,0.1216 -0.446104,0.3244 -0.24333,0.2433 -0.283885,0.2839 -0.364995,0.4867 -0.24333,0.4461 -0.283885,0.8516 -0.16222,1.4194 0.32444,1.5005 1.216649,2.8388 2.554962,3.7311 0.56777,0.3649 1.378869,0.6894 2.027748,0.8111 0.56777,0.1216 0.72999,0.1216 3.203842,0.1216 l 2.352188,0 0.324439,-0.081 c 1.257204,-0.2433 2.311633,-0.7705 3.163287,-1.6627 0.892209,-0.9328 1.419424,-2.0278 1.581643,-3.285 0.04056,-0.4055 0.04056,-0.5272 0.04056,-11.8826 0,-10.9904 0,-11.4771 -0.04056,-11.6393 -0.162219,-0.5677 -0.527214,-0.9733 -1.013874,-1.2166 -0.446104,-0.2434 0,-0.2028 -4.623265,-0.2028 -2.230522,0 -4.096051,0 -4.136606,0 z m 5.63714,-9.7737 c -0.446105,0.081 -0.689435,0.2433 -1.013874,0.5272 -0.24333,0.2433 -0.364995,0.4461 -0.446105,0.6894 -0.121665,0.3244 -0.121665,0.4461 -0.121665,1.5005 0,1.0545 0,1.1761 0.121665,1.5006 0.08111,0.2433 0.202775,0.4055 0.446105,0.6894 0.243329,0.2433 0.405549,0.365 0.689434,0.4461 0.364995,0.1217 0.48666,0.1217 1.743863,0.1217 1.297759,0 1.297759,0 1.703308,-0.2028 0.364995,-0.2028 0.64888,-0.4867 0.851655,-0.8922 0.202774,-0.4056 0.202774,-0.365 0.202774,-1.6628 0,-1.2977 0,-1.2572 -0.202774,-1.6627 -0.202775,-0.4056 -0.48666,-0.6894 -0.851655,-0.8922 -0.405549,-0.2028 -0.364994,-0.2028 -1.743863,-0.2028 -0.973319,0 -1.257203,0 -1.378868,0.041 z"
         style="font-style:normal;font-variant:normal;font-weight:normal;font-stretch:normal;font-family:OCRA;-inkscape-font-specification:OCRA;fill:#ffffff"
         id="path4921" />
      <path
         d="m 66.979241,1022.392 c -0.446105,0.041 -0.973319,0.365 -1.257204,0.6894 -0.121665,0.2028 -0.283885,0.4867 -0.364994,0.6895 -0.04055,0.1622 -0.04055,0.2433 -0.04055,0.5272 0,0.3244 0,0.365 0.04055,0.5272 0.202774,0.5678 0.527214,0.9733 1.013873,1.2166 0.446105,0.2028 0.04056,0.2028 4.420491,0.2028 l 3.933831,0.041 0.24333,0.081 c 0.648879,0.2028 1.094984,0.73 1.257203,1.4194 0,0.1217 0.04056,0.6083 0.08111,1.5817 0,0.7705 0.04055,1.3788 0.04055,1.3788 0,0.041 -0.121665,0 -0.24333,-0.041 -0.121664,-0.041 -0.364994,-0.081 -0.567769,-0.1217 l -0.32444,-0.041 -4.25827,0 -4.258271,0 -0.32444,0.041 c -1.297758,0.2433 -2.392742,0.8111 -3.244396,1.7033 -0.892209,0.8922 -1.419424,2.0278 -1.581644,3.285 -0.04056,0.3244 -0.04056,0.5272 -0.04056,1.7844 0,1.2977 0,1.46 0.04056,1.7844 0.16222,1.2978 0.689435,2.3927 1.581644,3.3255 0.729989,0.7706 1.662753,1.2978 2.717182,1.5817 0.689434,0.1622 0.48666,0.1622 4.136606,0.1622 3.122732,0 3.284951,0 3.447171,-0.041 0.283885,-0.081 0.446105,-0.2028 1.906083,-1.0139 0.770544,-0.4461 1.378869,-0.8111 1.419424,-0.8111 0,0 0,0.041 0,0.1217 0,0.041 0.04055,0.1622 0.04055,0.2433 0.364994,1.46 2.149413,1.9872 3.203842,0.9734 0.364994,-0.3245 0.567769,-0.73 0.608324,-1.1761 0.04055,-0.1217 0,-0.9328 -0.04055,-2.5144 l -0.24333,-7.2594 c -0.121665,-2.7172 -0.202775,-5.0288 -0.202775,-5.191 -0.283884,-2.4333 -1.987193,-4.4205 -4.379935,-4.9883 -0.648879,-0.1622 -0.32444,-0.1622 -4.704375,-0.1622 -2.189968,0 -4.014941,0 -4.055496,0 z m 8.273211,12.1259 c 0.283885,0.081 0.40555,0.1623 0.608325,0.3245 0.283884,0.2028 0.486659,0.5677 0.608324,0.9327 0.04056,0.1623 0.04056,0.3245 0.08111,1.1761 0.04055,0.5272 0.04055,0.9734 0.04055,0.9734 0,0 -0.932764,0.5272 -2.068303,1.2166 l -2.068303,1.1761 -2.798292,0 c -2.554962,0 -2.757737,0 -2.919957,-0.041 -0.608324,-0.2027 -1.094984,-0.6488 -1.297759,-1.3383 l -0.04055,-0.1622 0,-1.4194 0,-1.3789 0.04055,-0.2028 c 0.202775,-0.6083 0.608325,-1.0544 1.176094,-1.2572 0.121665,-0.041 0.24333,-0.081 0.32444,-0.081 0.04055,0 1.906083,0 4.096051,0 l 3.974386,0 0.243329,0.081 z"
         style="font-style:normal;font-variant:normal;font-weight:normal;font-stretch:normal;font-family:OCRA;-inkscape-font-specification:OCRA;fill:#ffffff"
         id="path4923" />
      <path
         d="m 92.07642,1022.392 c -0.405549,0.081 -0.689434,0.2433 -1.013873,0.5678 -0.32444,0.3244 -0.446105,0.5677 -0.56777,1.0138 -0.04055,0.2839 -0.04055,18.3714 0,18.6148 0.121665,0.4461 0.24333,0.73 0.56777,1.0544 0.243329,0.2433 0.446104,0.365 0.689434,0.4461 0.527214,0.2028 1.013874,0.1622 1.541088,-0.081 0.364995,-0.2028 0.64888,-0.4867 0.851654,-0.8922 0.24333,-0.4461 0.202775,0.2839 0.202775,-6.6916 l 0.04055,-6.1643 2.879402,-1.8656 c 1.622199,-1.0544 3.001065,-1.906 3.082175,-1.9466 0.365,-0.2028 0.32444,-0.1622 1.94664,-0.1622 l 1.41942,0 0.24333,0.081 c 0.64888,0.2028 1.09499,0.73 1.25721,1.4194 0,0.1622 0.0811,1.7844 0.28388,7.4621 0.28389,8.0299 0.24333,7.4216 0.40555,7.8271 0.32444,0.6489 0.93277,1.095 1.66275,1.1356 0.93277,0.04 1.74387,-0.5678 1.9872,-1.46 0.0405,-0.1622 0.0405,-0.2839 0.0405,-0.5678 0,-0.6083 -0.48666,-14.3564 -0.48666,-14.6403 -0.16222,-1.2978 -0.68943,-2.4739 -1.6222,-3.4066 -0.8922,-0.9328 -1.98719,-1.5006 -3.28495,-1.7033 -0.32444,-0.081 -3.16328,-0.081 -3.64994,-0.041 -0.689437,0.081 -1.338317,0.2839 -1.946641,0.5678 -0.283885,0.1622 -0.932764,0.5677 -2.311633,1.46 l -1.906083,1.2166 -0.04055,-0.8111 c 0,-0.8922 0,-0.8922 -0.121665,-1.2572 -0.121665,-0.2839 -0.486659,-0.73 -0.811099,-0.9328 -0.405549,-0.2433 -0.892209,-0.3244 -1.338314,-0.2433 z"
         style="font-style:normal;font-variant:normal;font-weight:normal;font-stretch:normal;font-family:OCRA;-inkscape-font-specification:OCRA;fill:#ffffff"
         id="path4925" />
      <path
         d="m 125.97403,1022.392 c -1.01387,0.1622 -2.0683,0.5678 -2.8794,1.1761 -0.40555,0.3244 -1.82497,1.5816 -2.02775,1.7844 -0.89221,0.9328 -1.41942,2.1494 -1.58164,3.4472 0,0.2028 0,1.2977 0,3.8122 0,3.9338 0,3.6905 0.16222,4.3799 0.24333,0.9733 0.72999,1.8655 1.41942,2.5955 0.20278,0.2028 1.66276,1.46 2.02775,1.7844 0.8111,0.6083 1.86553,1.0545 2.91996,1.1761 0.4461,0.041 3.73105,0.041 4.1366,0 0.93277,-0.1216 1.82498,-0.4461 2.55497,-0.9327 0.32444,-0.2028 0.28388,-0.2028 1.2572,-1.0139 0.365,-0.3245 0.72999,-0.6083 0.72999,-0.6083 0.0405,-0.041 0.0405,0.5272 0.0405,2.8794 l 0,2.8794 -0.0811,0.2433 c -0.16222,0.4866 -0.28388,0.6083 -1.29775,1.46 -0.85166,0.73 -1.01388,0.8516 -1.37887,0.9733 l -0.16222,0.041 -4.42049,0 -4.42049,0.041 -0.16222,0.041 c -0.89221,0.2838 -1.41943,1.0138 -1.41943,1.8655 0,0.8922 0.52722,1.6222 1.41943,1.9061 l 0.16222,0.041 4.37993,0 c 3.08218,0 4.42049,0 4.62327,0 1.13554,-0.1216 2.27108,-0.5678 3.12273,-1.2977 0.60832,-0.4867 1.74386,-1.46 1.94664,-1.7033 0.85165,-0.8923 1.37887,-1.9872 1.54109,-3.2444 0.0405,-0.365 0.0405,-0.5678 0.0405,-11.1527 0,-11.7203 0,-10.9498 -0.12166,-11.3148 -0.0406,-0.1217 -0.12167,-0.2433 -0.16222,-0.3244 -0.0811,-0.1623 -0.48666,-0.5678 -0.68944,-0.6895 -0.32444,-0.2027 -0.8111,-0.2839 -1.21665,-0.2433 -0.24333,0.041 -0.52721,0.1217 -0.72999,0.2433 -0.32444,0.2028 -0.68943,0.6084 -0.8111,0.9328 -0.12166,0.3244 -0.12166,0.4055 -0.16222,0.9328 l 0,0.4866 -0.77054,-0.6489 c -0.40555,-0.3244 -0.8111,-0.6894 -0.93276,-0.8111 -0.8111,-0.6083 -1.74387,-0.9733 -2.7983,-1.0949 -0.32444,-0.041 -0.48666,-0.081 -2.18996,-0.041 -1.29776,0 -1.86553,0 -2.06831,0 z m 3.89328,3.8933 c 0.20277,0.041 0.52721,0.1622 0.68943,0.2839 0.24333,0.1216 3.56884,3.001 3.73106,3.1633 0.16222,0.2027 0.28388,0.4461 0.36499,0.7299 l 0.0811,0.1623 0,1.8655 0,1.825 -0.0811,0.2433 c -0.16222,0.4461 -0.28388,0.6083 -0.97331,1.1761 l -1.78442,1.5411 c -1.1761,1.0138 -1.29776,1.095 -1.50054,1.2166 -0.4461,0.2028 -0.32444,0.2028 -2.31163,0.2028 l -1.74386,0 -0.20278,-0.081 c -0.36499,-0.1217 -0.52721,-0.2028 -1.41942,-0.9733 -0.93276,-0.7706 -1.01387,-0.8517 -1.17609,-1.2167 -0.20278,-0.4055 -0.16222,-0.081 -0.16222,-3.9338 0,-3.8933 -0.0406,-3.5688 0.16222,-3.9744 0.16222,-0.365 0.24333,-0.4461 1.17609,-1.2166 0.97332,-0.8517 1.09498,-0.9328 1.54109,-1.0139 0.24333,-0.041 3.36606,-0.041 3.60939,0 z"
         style="font-style:normal;font-variant:normal;font-weight:normal;font-stretch:normal;font-family:OCRA;-inkscape-font-specification:OCRA;fill:#ffffff"
         id="path4927" />
      <path
         d="m 154.9645,1022.392 c -1.05443,0.1622 -2.06831,0.5678 -2.83885,1.1761 -0.36499,0.2433 -1.86553,1.5816 -2.0683,1.7844 -0.85166,0.8922 -1.37887,2.0278 -1.54109,3.285 -0.0406,0.3244 -0.0406,0.5272 -0.0406,4.6232 0,3.65 0,4.3394 0.0406,4.5827 0.12166,1.3384 0.64888,2.4739 1.54109,3.3661 0.20277,0.2433 1.66275,1.5005 2.02774,1.7844 0.64888,0.4867 1.54109,0.9328 2.31164,1.095 0.64888,0.1217 0.68943,0.1217 3.64994,0.1217 2.96052,0 3.04163,0 3.6094,-0.1217 0.85165,-0.2028 1.78441,-0.6489 2.39274,-1.1355 0.56777,-0.4461 1.66275,-1.4195 1.82497,-1.5817 0.93276,-0.9327 1.54109,-2.1088 1.70331,-3.4066 0.0405,-0.365 0.0405,-0.5272 0.0405,-4.6638 0,-3.6094 0,-4.3394 -0.0405,-4.5827 -0.16222,-1.3789 -0.72999,-2.555 -1.70331,-3.4877 -0.16222,-0.2028 -1.2572,-1.095 -1.82497,-1.6222 -0.40555,-0.2839 -1.09499,-0.6895 -1.6222,-0.8923 -0.28389,-0.1216 -0.77054,-0.2433 -1.13554,-0.2838 -0.24333,-0.041 -0.48666,-0.041 -3.16329,-0.041 -2.31163,0 -2.96051,0 -3.16328,0 z m 5.96158,3.9338 c 0.20277,0.041 0.4461,0.1623 0.56777,0.2434 0.24333,0.1622 1.74386,1.4599 1.82497,1.5816 0.16222,0.2028 0.28388,0.4867 0.36499,0.73 0.0406,0.1217 0.0406,0.4055 0.0406,4.4205 l 0,4.2988 -0.0811,0.2433 c -0.16222,0.4867 -0.24333,0.5678 -1.21665,1.3789 -0.85165,0.7706 -0.97332,0.8111 -1.21665,0.9328 -0.36499,0.1622 -0.16222,0.1622 -3.16329,0.1622 -3.08217,0 -2.83884,0 -3.28495,-0.2028 -0.16222,-0.081 -0.32444,-0.2028 -1.05443,-0.8516 -0.93276,-0.7706 -1.01387,-0.8517 -1.17609,-1.2167 -0.20278,-0.4055 -0.16222,0.041 -0.16222,-4.7855 l 0,-4.2988 0.0811,-0.2028 c 0.16222,-0.4866 0.24333,-0.6083 1.13554,-1.3383 l 0.85165,-0.7705 c 0.16222,-0.1217 0.365,-0.2434 0.56777,-0.2839 0.28389,-0.1217 0.28389,-0.1217 3.08218,-0.1217 2.51441,0.041 2.71718,0.041 2.83885,0.081 z"
         style="font-style:normal;font-variant:normal;font-weight:normal;font-stretch:normal;font-family:OCRA;-inkscape-font-specification:OCRA;fill:#ffffff"
         id="path4929" />
      <path
         d="m 217.48756,1014.2405 c -1.05443,0.081 -2.18996,0.4461 -3.08217,1.0138 -0.85166,0.5272 -1.66276,1.3383 -2.18997,2.19 -0.48666,0.7705 -0.8111,1.6628 -0.97332,2.6361 -0.0405,0.2839 -0.0405,0.4461 -0.0405,1.2977 l -0.0406,0.9733 -1.09498,0.041 c -1.21665,0 -1.21665,0 -1.6222,0.2028 -0.48666,0.2433 -0.85166,0.6489 -1.01388,1.2166 -0.0811,0.2839 -0.0811,0.73 0,1.0139 0.16222,0.5272 0.52722,0.9733 1.01388,1.2166 0.40555,0.2028 0.40555,0.2028 1.6222,0.2028 l 1.09498,0 0,8.111 c 0,8.7193 0,8.2327 0.16222,8.5977 0.0811,0.2433 0.20277,0.4055 0.4461,0.6894 0.24333,0.2433 0.40555,0.365 0.68944,0.4461 0.52721,0.2028 1.01387,0.1622 1.50053,-0.081 0.28389,-0.1217 0.48666,-0.2839 0.64888,-0.5272 0.16222,-0.1622 0.32444,-0.4867 0.40555,-0.73 0.0406,-0.1217 0.0406,-0.5272 0.0406,-8.3138 l 0,-8.1921 1.98719,0 c 1.58164,0 2.02775,0 2.14941,-0.041 0.93277,-0.1623 1.58165,-0.9733 1.58165,-1.9061 0,-0.9328 -0.64888,-1.7033 -1.58165,-1.9061 -0.12166,0 -0.56777,-0.041 -2.14941,-0.041 l -1.98719,0 0,-0.8516 c 0.0405,-0.9328 0.0405,-1.0139 0.16222,-1.4194 0.36499,-1.0545 1.33831,-1.825 2.43329,-1.9467 0.12167,-0.04 1.13554,-0.04 2.67663,-0.04 2.67663,0 2.67663,0 3.04162,-0.1217 0.24333,-0.1217 0.40555,-0.2028 0.64888,-0.4461 0.365,-0.365 0.52722,-0.6894 0.56777,-1.1761 0.0406,-0.2028 0.0406,-0.2839 0,-0.4866 -0.0811,-0.4461 -0.24333,-0.8111 -0.60832,-1.1356 -0.20278,-0.2028 -0.365,-0.2839 -0.60833,-0.4055 -0.36499,-0.1217 -0.32444,-0.1217 -3.16328,-0.1217 -1.41943,0 -2.63608,0.041 -2.71719,0.041 z"
         style="font-style:normal;font-variant:normal;font-weight:normal;font-stretch:normal;font-family:OCRA;-inkscape-font-specification:OCRA;fill:#ffffff"
         id="path4931" />
      <path
         d="m 241.93587,1022.392 c -1.05443,0.1622 -2.0683,0.5678 -2.83885,1.1761 -0.36499,0.2433 -1.86552,1.5816 -2.0683,1.7844 -0.85165,0.8922 -1.37887,2.0278 -1.54109,3.285 -0.0405,0.3244 -0.0405,0.5272 -0.0405,4.6232 0,3.65 0,4.3394 0.0405,4.5827 0.12167,1.3384 0.64888,2.4739 1.54109,3.3661 0.20278,0.2433 1.66275,1.5005 2.02775,1.7844 0.64888,0.4867 1.54109,0.9328 2.31163,1.095 0.64888,0.1217 0.68944,0.1217 3.64995,0.1217 2.96051,0 3.04162,0 3.60939,-0.1217 0.85165,-0.2028 1.78442,-0.6489 2.39274,-1.1355 0.56777,-0.4461 1.66276,-1.4195 1.82498,-1.5817 0.93276,-0.9327 1.54108,-2.1088 1.7033,-3.4066 0.0406,-0.365 0.0406,-0.5272 0.0406,-4.6638 0,-3.6094 0,-4.3394 -0.0406,-4.5827 -0.16222,-1.3789 -0.72999,-2.555 -1.7033,-3.4877 -0.16222,-0.2028 -1.25721,-1.095 -1.82498,-1.6222 -0.40555,-0.2839 -1.09498,-0.6895 -1.6222,-0.8923 -0.28388,-0.1216 -0.77054,-0.2433 -1.13554,-0.2838 -0.24332,-0.041 -0.48665,-0.041 -3.16328,-0.041 -2.31163,0 -2.96051,0 -3.16329,0 z m 5.96158,3.9338 c 0.20278,0.041 0.4461,0.1623 0.56777,0.2434 0.24333,0.1622 1.74386,1.4599 1.82497,1.5816 0.16222,0.2028 0.28389,0.4867 0.365,0.73 0.0405,0.1217 0.0405,0.4055 0.0405,4.4205 l 0,4.2988 -0.0811,0.2433 c -0.16222,0.4867 -0.24333,0.5678 -1.21665,1.3789 -0.85165,0.7706 -0.97332,0.8111 -1.21664,0.9328 -0.365,0.1622 -0.16222,0.1622 -3.16329,0.1622 -3.08218,0 -2.83885,0 -3.28495,-0.2028 -0.16222,-0.081 -0.32444,-0.2028 -1.05443,-0.8516 -0.93277,-0.7706 -1.01388,-0.8517 -1.1761,-1.2167 -0.20277,-0.4055 -0.16222,0.041 -0.16222,-4.7855 l 0,-4.2988 0.0811,-0.2028 c 0.16222,-0.4866 0.24333,-0.6083 1.13554,-1.3383 l 0.85166,-0.7705 c 0.16222,-0.1217 0.36499,-0.2434 0.56777,-0.2839 0.28388,-0.1217 0.28388,-0.1217 3.08217,-0.1217 2.51441,0.041 2.71719,0.041 2.83885,0.081 z"
         style="font-style:normal;font-variant:normal;font-weight:normal;font-stretch:normal;font-family:OCRA;-inkscape-font-specification:OCRA;fill:#ffffff"
         id="path4933" />
      <path
         d="m 266.01917,1022.392 c -0.40555,0.081 -0.68943,0.2433 -1.01387,0.5678 -0.32444,0.3244 -0.44611,0.5677 -0.56777,1.0138 -0.0406,0.2839 -0.0406,18.3714 0,18.6148 0.12166,0.4461 0.24333,0.73 0.56777,1.0544 0.24333,0.2433 0.4461,0.365 0.68943,0.4461 0.52721,0.2028 1.01387,0.1622 1.54109,-0.081 0.36499,-0.2028 0.64888,-0.4867 0.85165,-0.8922 0.24333,-0.4461 0.20278,0.2028 0.20278,-5.9616 l 0,-5.4344 3.20384,-2.7171 3.20384,-2.7172 1.70331,0 c 1.90608,0 1.82497,-0.041 2.23052,0.1622 0.24333,0.1217 0.48666,0.2839 0.64888,0.4867 0.16222,0.2027 0.24333,0.365 0.32444,0.6083 l 0.0811,0.2433 0,0.8922 c 0.0406,0.7706 0.0406,0.8922 0.0811,1.0545 0.24333,0.8516 0.97332,1.4194 1.86553,1.4194 0.93276,0 1.74386,-0.6489 1.90608,-1.5817 0.0406,-0.3244 0.0406,-1.6627 0,-2.1494 -0.32444,-2.3927 -2.0683,-4.3394 -4.37993,-4.9071 -0.64888,-0.1217 -0.60833,-0.1217 -3.16329,-0.1217 -2.0683,0 -2.31163,0 -2.4333,0.041 -0.28388,0.081 -0.4461,0.1216 -0.60832,0.2433 -0.12167,0.081 -1.1761,0.9733 -2.39275,2.0277 -1.21664,1.0545 -2.23052,1.9061 -2.23052,1.9061 0,0 -0.0405,-0.5678 -0.0405,-1.2166 0,-1.3383 0,-1.4195 -0.12167,-1.7439 -0.0405,-0.1217 -0.0811,-0.2433 -0.12166,-0.3244 -0.12167,-0.1623 -0.52722,-0.5678 -0.68944,-0.6895 -0.40555,-0.2433 -0.89221,-0.3244 -1.33831,-0.2433 z"
         style="font-style:normal;font-variant:normal;font-weight:normal;font-stretch:normal;font-family:OCRA;-inkscape-font-specification:OCRA;fill:#ffffff"
         id="path4935" />
      <path
         d="m 331.62443,1014.2405 c -0.44611,0.081 -0.68944,0.2433 -1.01388,0.5677 -0.24333,0.2434 -0.36499,0.4056 -0.4461,0.6489 -0.0811,0.2028 -7.62433,26.0363 -7.70544,26.3607 -0.0811,0.2434 -0.0811,0.6489 0,0.8922 0.32444,1.2978 1.82497,1.9061 2.91995,1.1761 0.32444,-0.2027 0.60833,-0.5272 0.72999,-0.8922 0.0406,-0.04 0.40555,-1.2977 0.8111,-2.7172 l 0.77055,-2.5955 4.25827,0 4.29882,0 0.72999,2.555 c 0.40555,1.3789 0.77055,2.6361 0.8111,2.7172 0.20278,0.5677 0.72999,1.0138 1.29776,1.1761 1.21665,0.365 2.4333,-0.5678 2.4333,-1.8656 0,-0.1216 0,-0.2839 0,-0.365 -0.0406,-0.081 -1.78442,-6.0427 -3.89328,-13.2614 -3.12273,-10.7877 -3.85272,-13.1398 -3.93383,-13.3426 -0.16222,-0.4056 -0.48666,-0.6894 -0.85165,-0.8922 -0.12167,-0.041 -0.28389,-0.1217 -0.365,-0.1217 -0.24333,-0.081 -0.64888,-0.081 -0.85165,-0.04 z m 1.90608,14.2347 1.58164,5.3127 -1.58164,0 c -0.85165,0 -2.27108,0 -3.12273,0 l -1.58164,0 1.58164,-5.3532 c 0.85165,-2.9605 1.58164,-5.3533 1.58164,-5.3127 0,0 0.68944,2.3927 1.54109,5.3532 z"
         style="font-style:normal;font-variant:normal;font-weight:normal;font-stretch:normal;font-family:OCRA;-inkscape-font-specification:OCRA;fill:#ffffff"
         id="path4937" />
      <path
         d="m 352.99054,1022.392 c -0.40555,0.081 -0.68943,0.2433 -1.01387,0.5678 -0.32444,0.3244 -0.4461,0.5677 -0.56777,1.0138 -0.0405,0.2839 -0.0405,18.3714 0,18.6148 0.12167,0.4461 0.24333,0.73 0.56777,1.0544 0.24333,0.2433 0.4461,0.365 0.68943,0.4461 0.52722,0.2028 1.01388,0.1622 1.54109,-0.081 0.365,-0.2028 0.64888,-0.4867 0.85166,-0.8922 0.24333,-0.4461 0.20277,0.2839 0.20277,-6.6916 l 0.0406,-6.1643 2.8794,-1.8656 c 1.6222,-1.0544 3.00107,-1.906 3.08218,-1.9466 0.36499,-0.2028 0.32444,-0.1622 1.94663,-0.1622 l 1.41943,0 0.24333,0.081 c 0.64888,0.2028 1.09498,0.73 1.2572,1.4194 0,0.1622 0.0811,1.7844 0.28389,7.4621 0.28388,8.0299 0.24332,7.4216 0.40554,7.8271 0.32444,0.6489 0.93277,1.095 1.66276,1.1356 0.93276,0.04 1.74386,-0.5678 1.98719,-1.46 0.0406,-0.1622 0.0406,-0.2839 0.0406,-0.5678 0,-0.6083 -0.48666,-14.3564 -0.48666,-14.6403 -0.16222,-1.2978 -0.68944,-2.4739 -1.6222,-3.4066 -0.89221,-0.9328 -1.98719,-1.5006 -3.28495,-1.7033 -0.32444,-0.081 -3.16329,-0.081 -3.64995,-0.041 -0.68943,0.081 -1.33831,0.2839 -1.94664,0.5678 -0.28388,0.1622 -0.93276,0.5677 -2.31163,1.46 l -1.90608,1.2166 -0.0406,-0.8111 c 0,-0.8922 0,-0.8922 -0.12166,-1.2572 -0.12167,-0.2839 -0.48666,-0.73 -0.8111,-0.9328 -0.40555,-0.2433 -0.89221,-0.3244 -1.33832,-0.2433 z"
         style="font-style:normal;font-variant:normal;font-weight:normal;font-stretch:normal;font-family:OCRA;-inkscape-font-specification:OCRA;fill:#ffffff"
         id="path4939" />
      <path
         d="m 397.22969,1014.2405 c -0.365,0.081 -0.64888,0.2433 -0.93277,0.5272 -0.32444,0.2433 -0.4461,0.5272 -0.60832,0.9327 0,0.1217 -0.0406,0.5273 -0.0406,4.7044 l 0,4.5827 -0.77054,-0.6489 c -0.40555,-0.3244 -0.8111,-0.6894 -0.93276,-0.8111 -0.8111,-0.6083 -1.74387,-0.9733 -2.7983,-1.0949 -0.32444,-0.041 -0.48666,-0.081 -2.14941,-0.081 -1.90608,0 -2.0683,0.041 -2.67663,0.1623 -0.77054,0.1622 -1.66275,0.5677 -2.31163,1.0544 -0.40555,0.3244 -1.82497,1.5816 -2.02775,1.7844 -0.85165,0.9328 -1.37887,2.0683 -1.54109,3.3661 -0.0811,0.4055 -0.0811,8.6787 -0.0405,9.1248 0.16222,1.3384 0.68943,2.4739 1.58164,3.3661 0.20278,0.2433 1.66276,1.5005 2.02775,1.7844 0.8111,0.6489 1.86553,1.0545 2.91996,1.1761 0.4461,0.041 3.73105,0.041 4.1366,0 1.09499,-0.1216 2.10886,-0.5272 2.91996,-1.1761 0.0811,-0.04 0.48666,-0.4055 0.89221,-0.7705 0.40555,-0.3245 0.77054,-0.6083 0.77054,-0.6083 0,0 0,0.1622 0,0.4055 0,0.7705 0.12167,1.1355 0.60833,1.6222 0.24333,0.2433 0.40555,0.365 0.68943,0.4461 0.52722,0.2028 1.01388,0.1622 1.50054,-0.081 0.40555,-0.2028 0.68943,-0.4867 0.8922,-0.8922 0.0406,-0.1217 0.12167,-0.2839 0.16222,-0.365 0.0406,-0.1622 0.0406,-0.6894 0.0406,-13.5454 0,-12.8153 0,-13.3831 -0.0406,-13.5453 -0.12166,-0.365 -0.36499,-0.7706 -0.68943,-1.0139 -0.16222,-0.1217 -0.52721,-0.3244 -0.72999,-0.365 -0.20277,-0.081 -0.64888,-0.081 -0.85165,-0.04 z m -6.44824,12.0448 c 0.20277,0.041 0.52721,0.1622 0.68943,0.2839 0.24333,0.1216 3.56884,3.001 3.73106,3.1633 0.16222,0.2027 0.28388,0.4461 0.36499,0.7299 l 0.0811,0.1623 0,2.6766 0,2.6766 -0.0811,0.2028 c -0.16222,0.4866 -0.28388,0.6489 -0.93276,1.1761 l -1.74386,1.46 c -1.41943,1.2572 -1.37887,1.2166 -1.6222,1.2977 -0.40555,0.2028 -0.32444,0.2028 -2.27108,0.2028 l -1.74386,0 -0.20278,-0.041 c -0.36499,-0.1216 -0.52721,-0.2027 -1.41942,-1.0138 -0.93277,-0.7706 -1.01388,-0.8517 -1.17609,-1.2167 -0.20278,-0.4055 -0.16222,0 -0.16222,-4.7449 0,-4.7855 -0.0406,-4.3799 0.16222,-4.7855 0.16221,-0.365 0.24332,-0.4461 1.17609,-1.2166 0.97332,-0.8517 1.09498,-0.9328 1.54109,-1.0139 0.24333,-0.041 3.36606,-0.041 3.60939,0 z"
         style="font-style:normal;font-variant:normal;font-weight:normal;font-stretch:normal;font-family:OCRA;-inkscape-font-specification:OCRA;fill:#ffffff"
         id="path4941" />
      <path
         d="m 410.97147,1022.392 c -0.40555,0.081 -0.68943,0.2433 -1.01387,0.5678 -0.32444,0.3244 -0.44611,0.5677 -0.56777,1.0138 -0.0406,0.2839 -0.0406,18.3714 0,18.6148 0.12166,0.4461 0.24333,0.73 0.56777,1.0544 0.24333,0.2433 0.4461,0.365 0.68943,0.4461 0.52722,0.2028 1.01387,0.1622 1.54109,-0.081 0.36499,-0.2028 0.64888,-0.4867 0.85165,-0.8922 0.24333,-0.4461 0.20278,0.2028 0.20278,-5.9616 l 0,-5.4344 3.20384,-2.7171 3.20384,-2.7172 1.70331,0 c 1.90608,0 1.82497,-0.041 2.23052,0.1622 0.24333,0.1217 0.48666,0.2839 0.64888,0.4867 0.16222,0.2027 0.24333,0.365 0.32444,0.6083 l 0.0811,0.2433 0,0.8922 c 0.0406,0.7706 0.0406,0.8922 0.0811,1.0545 0.24333,0.8516 0.97332,1.4194 1.86553,1.4194 0.93276,0 1.74386,-0.6489 1.90608,-1.5817 0.0406,-0.3244 0.0406,-1.6627 0,-2.1494 -0.32444,-2.3927 -2.0683,-4.3394 -4.37993,-4.9071 -0.64888,-0.1217 -0.60833,-0.1217 -3.16329,-0.1217 -2.0683,0 -2.31163,0 -2.4333,0.041 -0.28388,0.081 -0.4461,0.1216 -0.60832,0.2433 -0.12167,0.081 -1.1761,0.9733 -2.39274,2.0277 -1.21665,1.0545 -2.23053,1.9061 -2.23053,1.9061 0,0 -0.0405,-0.5678 -0.0405,-1.2166 0,-1.3383 0,-1.4195 -0.12167,-1.7439 -0.0405,-0.1217 -0.0811,-0.2433 -0.12166,-0.3244 -0.12167,-0.1623 -0.52722,-0.5678 -0.68944,-0.6895 -0.40555,-0.2433 -0.8922,-0.3244 -1.33831,-0.2433 z"
         style="font-style:normal;font-variant:normal;font-weight:normal;font-stretch:normal;font-family:OCRA;-inkscape-font-specification:OCRA;fill:#ffffff"
         id="path4943" />
      <path
         d="m 444.8691,1022.392 c -1.05443,0.1622 -2.0683,0.5678 -2.83885,1.1761 -0.36499,0.2433 -1.86553,1.5816 -2.0683,1.7844 -0.85166,0.8922 -1.37887,2.0278 -1.54109,3.285 -0.0405,0.3244 -0.0405,0.5272 -0.0405,4.6232 0,3.65 0,4.3394 0.0405,4.5827 0.12167,1.3384 0.64888,2.4739 1.54109,3.3661 0.20277,0.2433 1.66275,1.5005 2.02775,1.7844 0.64888,0.4867 1.54109,0.9328 2.31163,1.095 0.64888,0.1217 0.68943,0.1217 3.64995,0.1217 2.96051,0 3.04162,0 3.60939,-0.1217 0.85165,-0.2028 1.78442,-0.6489 2.39274,-1.1355 0.56777,-0.4461 1.66275,-1.4195 1.82497,-1.5817 0.93277,-0.9327 1.54109,-2.1088 1.70331,-3.4066 0.0406,-0.365 0.0406,-0.5272 0.0406,-4.6638 0,-3.6094 0,-4.3394 -0.0406,-4.5827 -0.16222,-1.3789 -0.72999,-2.555 -1.70331,-3.4877 -0.16222,-0.2028 -1.2572,-1.095 -1.82497,-1.6222 -0.40555,-0.2839 -1.09498,-0.6895 -1.6222,-0.8923 -0.28388,-0.1216 -0.77054,-0.2433 -1.13554,-0.2838 -0.24333,-0.041 -0.48666,-0.041 -3.16328,-0.041 -2.31164,0 -2.96052,0 -3.16329,0 z m 5.96158,3.9338 c 0.20277,0.041 0.4461,0.1623 0.56777,0.2434 0.24333,0.1622 1.74386,1.4599 1.82497,1.5816 0.16222,0.2028 0.28389,0.4867 0.365,0.73 0.0405,0.1217 0.0405,0.4055 0.0405,4.4205 l 0,4.2988 -0.0811,0.2433 c -0.16222,0.4867 -0.24333,0.5678 -1.21665,1.3789 -0.85165,0.7706 -0.97332,0.8111 -1.21665,0.9328 -0.36499,0.1622 -0.16222,0.1622 -3.16328,0.1622 -3.08218,0 -2.83885,0 -3.28496,-0.2028 -0.16222,-0.081 -0.32444,-0.2028 -1.05442,-0.8516 -0.93277,-0.7706 -1.01388,-0.8517 -1.1761,-1.2167 -0.20277,-0.4055 -0.16222,0.041 -0.16222,-4.7855 l 0,-4.2988 0.0811,-0.2028 c 0.16222,-0.4866 0.24333,-0.6083 1.13554,-1.3383 l 0.85165,-0.7705 c 0.16222,-0.1217 0.365,-0.2434 0.56777,-0.2839 0.28389,-0.1217 0.28389,-0.1217 3.08218,-0.1217 2.51441,0.041 2.71718,0.041 2.83885,0.081 z"
         style="font-style:normal;font-variant:normal;font-weight:normal;font-stretch:normal;font-family:OCRA;-inkscape-font-specification:OCRA;fill:#ffffff"
         id="path4945" />
      <path
         d="m 470.89904,1022.392 c -0.77055,0.1217 -1.41943,0.73 -1.58165,1.46 -0.24333,1.0139 0.32444,2.0277 1.37887,2.3116 l 0.16222,0.081 2.0683,0 2.06831,0 0,7.0566 0,7.016 -2.06831,0 -2.0683,0.041 -0.16222,0.041 c -0.89221,0.2433 -1.41942,1.0139 -1.41942,1.8655 0,0.8922 0.56777,1.6222 1.41942,1.8656 l 0.20278,0.081 6.00213,0 6.04269,0 0.20277,-0.081 c 0.52722,-0.1623 1.01388,-0.5273 1.21665,-1.0139 0.16222,-0.2839 0.20278,-0.4461 0.20278,-0.8517 0,-0.4055 -0.0406,-0.5272 -0.20278,-0.8516 -0.20277,-0.4867 -0.64888,-0.8517 -1.21665,-1.0139 l -0.16222,-0.041 -2.0683,-0.041 -2.0683,0 0,-8.1516 c 0,-7.7865 0,-8.1921 -0.0406,-8.3543 -0.0811,-0.2027 -0.24333,-0.5677 -0.36499,-0.73 -0.20278,-0.2027 -0.40555,-0.365 -0.64888,-0.4866 -0.44611,-0.2434 -0.12167,-0.2028 -3.64995,-0.2028 -1.74386,0 -3.20384,0 -3.24439,0 z m 3.77161,-9.7737 c -0.44611,0.081 -0.68944,0.2433 -1.01388,0.5272 -0.24333,0.2433 -0.36499,0.4461 -0.4461,0.6894 -0.12167,0.3244 -0.12167,0.4461 -0.12167,1.5005 0,1.0545 0,1.1761 0.12167,1.5006 0.0811,0.2433 0.20277,0.4055 0.4461,0.6894 0.24333,0.2433 0.40555,0.365 0.68944,0.4461 0.36499,0.1217 0.48666,0.1217 1.74386,0.1217 1.29776,0 1.29776,0 1.70331,-0.2028 0.36499,-0.2028 0.64888,-0.4867 0.85165,-0.8922 0.20278,-0.4056 0.20278,-0.365 0.20278,-1.6628 0,-1.2977 0,-1.2572 -0.20278,-1.6627 -0.20277,-0.4056 -0.48666,-0.6894 -0.85165,-0.8922 -0.40555,-0.2028 -0.365,-0.2028 -1.74387,-0.2028 -0.97331,0 -1.2572,0 -1.37886,0.041 z"
         style="font-style:normal;font-variant:normal;font-weight:normal;font-stretch:normal;font-family:OCRA;-inkscape-font-specification:OCRA;fill:#ffffff"
         id="path4947" />
      <path
         d="m 513.19151,1014.2405 c -0.365,0.081 -0.64888,0.2433 -0.93276,0.5272 -0.32444,0.2433 -0.44611,0.5272 -0.60833,0.9327 0,0.1217 -0.0405,0.5273 -0.0405,4.7044 l 0,4.5827 -0.77055,-0.6489 c -0.40555,-0.3244 -0.8111,-0.6894 -0.93276,-0.8111 -0.8111,-0.6083 -1.74387,-0.9733 -2.79829,-1.0949 -0.32444,-0.041 -0.48666,-0.081 -2.14942,-0.081 -1.90608,0 -2.0683,0.041 -2.67662,0.1623 -0.77055,0.1622 -1.66276,0.5677 -2.31164,1.0544 -0.40555,0.3244 -1.82497,1.5816 -2.02774,1.7844 -0.85166,0.9328 -1.37887,2.0683 -1.54109,3.3661 -0.0811,0.4055 -0.0811,8.6787 -0.0406,9.1248 0.16222,1.3384 0.68944,2.4739 1.58165,3.3661 0.20277,0.2433 1.66275,1.5005 2.02774,1.7844 0.8111,0.6489 1.86553,1.0545 2.91996,1.1761 0.4461,0.041 3.73106,0.041 4.13661,0 1.09498,-0.1216 2.10885,-0.5272 2.91995,-1.1761 0.0811,-0.04 0.48666,-0.4055 0.89221,-0.7705 0.40555,-0.3245 0.77055,-0.6083 0.77055,-0.6083 0,0 0,0.1622 0,0.4055 0,0.7705 0.12166,1.1355 0.60832,1.6222 0.24333,0.2433 0.40555,0.365 0.68943,0.4461 0.52722,0.2028 1.01388,0.1622 1.50054,-0.081 0.40555,-0.2028 0.68943,-0.4867 0.89221,-0.8922 0.0405,-0.1217 0.12166,-0.2839 0.16222,-0.365 0.0406,-0.1622 0.0406,-0.6894 0.0406,-13.5454 0,-12.8153 0,-13.3831 -0.0406,-13.5453 -0.12167,-0.365 -0.365,-0.7706 -0.68944,-1.0139 -0.16222,-0.1217 -0.52721,-0.3244 -0.72999,-0.365 -0.20277,-0.081 -0.64888,-0.081 -0.85165,-0.04 z m -6.44824,12.0448 c 0.20278,0.041 0.52722,0.1622 0.68944,0.2839 0.24333,0.1216 3.56883,3.001 3.73105,3.1633 0.16222,0.2027 0.28389,0.4461 0.365,0.7299 l 0.0811,0.1623 0,2.6766 0,2.6766 -0.0811,0.2028 c -0.16222,0.4866 -0.28389,0.6489 -0.93277,1.1761 l -1.74386,1.46 c -1.41942,1.2572 -1.37887,1.2166 -1.6222,1.2977 -0.40555,0.2028 -0.32444,0.2028 -2.27108,0.2028 l -1.74386,0 -0.20278,-0.041 c -0.36499,-0.1216 -0.52721,-0.2027 -1.41942,-1.0138 -0.93276,-0.7706 -1.01387,-0.8517 -1.17609,-1.2167 -0.20278,-0.4055 -0.16222,0 -0.16222,-4.7449 0,-4.7855 -0.0406,-4.3799 0.16222,-4.7855 0.16222,-0.365 0.24333,-0.4461 1.17609,-1.2166 0.97332,-0.8517 1.09499,-0.9328 1.54109,-1.0139 0.24333,-0.041 3.36606,-0.041 3.60939,0 z"
         style="font-style:normal;font-variant:normal;font-weight:normal;font-stretch:normal;font-family:OCRA;-inkscape-font-specification:OCRA;fill:#ffffff"
         id="path4949" />
    </g>
  </g>
</svg>
